Patient4_TMGait_0pt7_02_right_48_EMG.mot
version=1
nRows=26
nColumns=33
inDegrees=no
endheader
time	1LAddLong	2LGlutMax	3LGlutMed	4LIliopsoas	5LSemiMemb	6LBicFemLong	7LRecFem	8LVastMed	9LVastLat	10LGasMed	11LTibAnt	12lTibPost	13LPeroneusLong	14LSol	15LExtDigLong	16LFlexDigLong	17RAddLong	18RGlutMax	19RGlutMed	20RIliopsoas	21RSemiMemb	22RBicFemLong	23RRecFem	24RVastMed	25RVastLat	26RGasMed	27RTibAnt	28RTibPost	29RPeroneusLong	30RSol	31RExtDigLong	32RFlexDigLong
54.33	-0.012665	-0.35782	-0.094299	0.00351	0.066986	-0.028534	0.27588	0.021667	-0.02594	0.02533	-0.049438	0.035553	-0.19943	-0.065918	0.083923	0.011292	-0.014496	0.38147	0.43823	0.001373	0.039673	-0.023041	-0.47226	-0.06424	-0.070343	0.002136	0.39551	-0.010681	0.15579	-0.025787	-0.003052	0.007324
54.331	-0.014648	-0.39551	-0.042419	0.012512	0.052338	0.11246	0.12329	0.01358	0.066528	0.022888	-0.089722	0.055237	-0.1712	-0.067749	0.02655	-0.003815	0.035248	0.41763	0.52033	-0.032806	0.029907	-0.056763	-0.16342	-0.087891	-0.086365	-0.003967	0.34119	-0.010986	0.39063	-0.10941	-0.005493	0.001068
54.332	-0.027771	-0.43869	-0.041046	0.01236	0.050659	-0.12833	0.06546	0.010071	0.046082	-0.007935	-0.073242	0.054169	0.1828	-0.063324	0.057526	0.005035	0.04303	0.34637	0.36743	-0.049438	0.018005	-0.081024	0.20187	-0.083771	-0.098267	-0.006866	-0.021973	-0.013885	0.095673	-0.066986	-0.005188	0.01297
54.333	-0.01709	-0.48416	-0.006256	0.003815	0.054626	-0.25971	-0.058899	-0.005341	0.10788	-0.046387	-0.064087	0.059052	0.13092	-0.12589	0.039063	-0.001831	0.033722	0.3305	0.47958	-0.0354	-0.012512	-0.075989	0.41275	-0.12421	-0.081024	-0.012512	-0.42954	-0.010681	-0.69763	0.005188	-0.002289	-0.002136
54.334	-0.013275	-0.49637	0.057068	-0.000458	0.032349	-0.17014	-0.19134	-0.02243	0.13672	-0.038605	-0.054321	0.067291	0.18448	-0.14862	-0.006714	-0.006714	0.015564	0.25146	0.625	0.030823	-0.011292	-0.078583	0.60333	-0.052795	-0.085144	-0.010376	-0.65109	-0.008392	-0.28397	0.044708	-0.004578	0.004272
54.335	-0.005493	-0.53375	-0.075836	0.01236	0.035706	-0.10269	-0.13855	-0.03067	0.20523	-0.011597	0.002289	0.040741	0.030518	-0.053406	-0.0383	-0.012207	-0.015259	0.23605	0.63034	0.049133	-0.005493	-0.06546	0.76141	0.062408	-0.002289	-0.00412	-0.33371	-0.010071	0.15198	-0.069122	0.000153	0.000305
54.336	-0.005493	-0.49393	-0.12421	0.003052	0.043182	0.053101	-0.035248	-0.020142	0.27405	0.016479	0.034332	0.048065	-0.059509	0.009308	-0.023956	-0.007477	-0.027161	0.23956	0.51315	0.013885	-0.007172	-0.04776	0.72388	0.085754	0.025482	-0.010529	0.1474	-0.009766	0.25909	-0.041504	-0.001831	0.004425
54.337	-0.001831	-0.4274	-0.054626	0.001678	0.042419	0.24185	0.10925	-0.011597	0.30258	0.030975	0.03067	0.023346	-0.1329	-0.054779	-0.027008	0.007782	-0.045624	0.19653	0.49103	-0.055847	-0.000916	-0.035706	0.54398	0.053558	0.004883	-0.00946	0.60745	-0.007477	-0.081787	-0.051575	0.002289	0.00351
54.338	0.001068	-0.35034	0.040283	-0.007019	0.022278	0.30319	0.17624	0.018158	0.21988	-0.002136	0.036621	0.018311	0.022888	-0.14893	-0.12238	-0.009003	-0.045166	0.21774	0.51621	-0.015717	-0.008392	-0.032806	0.44495	0.023956	-0.012054	-0.008545	1.0014	-0.000305	-0.28183	-0.006104	-0.005035	-0.001373
54.339	0.005951	-0.32593	0.033417	-0.007629	0.015411	0.24674	0.082703	0.041504	0.031738	-0.002747	0.056458	0.012207	-0.040436	-0.16022	-0.032349	0.000458	-0.02655	0.15564	0.39093	0.13763	0.015564	-0.021667	0.43854	-0.037231	-0.011597	0.001984	0.91873	-0.004578	-0.34698	-0.026093	-0.000916	-0.001526
54.34	0.00473	-0.33905	-0.081024	-0.0354	0.014343	0.21683	0.053558	0.018616	0.039825	-0.014038	0.031128	0.015564	-0.035095	-0.076141	0.015869	0.001984	-0.035553	0.18997	0.26779	0.14771	0.009766	-0.014496	0.48172	-0.008698	0.005646	0.00061	-0.41611	-0.005035	-0.22781	-0.093536	-0.00412	0.005188
54.341	-0.002899	-0.35233	-0.26382	-0.020447	0.005951	0.10773	0.074005	0.010223	0.050201	0.035706	0.062103	0.012665	-0.001068	-0.009003	0.12711	0.001831	-0.012665	0.16647	0.18829	0.15442	0.013733	-0.006256	0.35248	0.030823	0.014191	0.005798	-1.0873	-0.008698	-0.12894	-0.0914	-0.003052	-0.005188
54.342	0.006866	-0.34027	-0.22263	-0.010071	0.000916	0.073547	0.008545	0.018158	0.032806	0.044861	0.09552	0.010223	0.078125	-0.010223	0.21484	0.002289	-0.006561	0.1503	0.1326	0.12039	0.018616	-0.014191	0.29037	0.007172	0.020599	0.003967	-0.66666	-0.003662	0.036469	-0.10971	-0.000458	-0.009766
54.343	0.005341	-0.3241	-0.1828	0.048981	0.003204	-0.059204	-0.009918	0.014191	0.046082	0.014191	0.09903	0.014191	0.08606	0.011597	0.20111	-0.001984	0.008698	0.21332	0.54123	-0.098114	0.016022	-0.015717	0.26016	-0.031738	0.023804	0.008545	-0.62866	-0.006256	0.30975	0.000763	-0.00412	0.001526
54.344	0.003967	-0.31128	-0.2417	0.044861	0.004272	0.002289	-0.018311	0.017242	0.041809	0.018463	0.14694	0.01236	0.013275	-0.003204	0.11475	-0.000305	0.037231	0.19486	0.54352	-0.16846	0.019073	-0.036011	0.16617	-0.051117	-0.003662	0.010681	-0.39429	-0.009613	0.41245	0.077057	-0.003967	-0.006256
54.345	-0.003204	-0.31632	-0.23041	0.005341	0.007782	0.30563	0.041351	0.01297	0.004272	0.014801	-0.12497	0.016479	-0.21881	-0.091095	0.045319	-0.008087	0.056763	0.19959	0.46555	-0.17868	0.041656	-0.032959	0.11505	-0.032959	-0.005493	-0.004272	-0.10284	-0.005798	0.29312	0.21942	-0.003204	-0.018311
54.346	-0.00885	-0.27054	0.23377	0.001678	0.014801	0.45075	0.031281	0.001526	0.018463	-0.022736	-0.15976	0.022736	-0.24414	-0.081329	0.19134	0.00351	0.052948	0.14053	0.42328	-0.13382	0.03067	-0.010681	0.071716	-0.11215	-0.004578	-0.004578	-0.051117	-0.004883	0.089722	0.26154	-0.003204	-0.025635
54.347	-0.003052	-0.2861	0.24231	0.009003	0.016022	0.50247	0.10117	-0.00824	0.03891	-0.043793	-0.11429	0.016632	0.22446	0.041199	0.033722	-0.002441	0.11322	0.12161	0.57419	0.095215	0.029449	-0.014191	0.15533	-0.097351	-0.020447	-0.005951	-0.072327	-0.007782	0.032043	0.28702	-0.001373	-0.031891
54.348	-0.010071	-0.3244	0.21362	0.012817	0.034943	0.30487	0.26611	-0.021057	0.042114	0.051575	-0.046387	0.015564	0.099335	0.14435	-0.058594	-0.016479	0.17029	0.036774	0.60181	0.22995	0.025177	-0.029297	0.1709	-0.033722	-0.014954	-0.00885	-0.046692	-0.006866	0.053101	0.25253	-0.001831	-0.031433
54.349	-0.003357	-0.3569	0.12329	0.009003	0.053864	0.10117	0.29297	-0.017853	0.001221	0.11414	0.049591	0.057068	-0.55817	0.15808	-0.28214	-0.001831	0.15243	0.001068	0.52689	0.23636	0.026398	-0.045471	0.15228	-0.12314	-0.000458	-0.005951	0.049744	0.000763	0.048523	0.12528	-0.002441	-0.024109
54.35	-0.018005	-0.31342	0.16373	0.020599	0.041504	-0.25146	0.22079	0.009918	-0.01358	0.070496	0.041199	0.1004	-0.001831	0.1535	-0.14358	-0.010834	0.072784	-0.04715	0.44296	0.21912	0.032043	-0.029907	0.15381	-0.0914	-0.016174	-0.000153	0.021362	-0.002136	-0.001984	-0.027924	-0.004425	-0.022736
54.351	-0.006866	-0.32577	-0.013123	0.020905	0.024872	-0.4393	0.11566	0.018921	0.027924	0.029449	-0.012817	0.10513	-0.046234	0.034485	-0.067444	0.001526	0.005951	-0.046539	0.49179	0.2005	0.059662	-0.032654	0.12863	-0.10819	-0.006866	0.003357	-0.019989	-0.000153	-0.029144	-0.1358	-0.00351	-0.018921
54.352	-0.003357	-0.35797	-0.061951	-0.010986	0.010834	-0.19623	0.091095	0.019379	0.023956	0.028687	-0.078888	0.1059	0.14511	0.019226	-0.12512	-0.012817	-0.042877	-0.054169	0.61508	0.12131	0.065918	-0.039368	0.13916	-0.12802	-0.018158	0.007324	0.084381	-0.000458	-0.11932	-0.13794	-0.008545	-0.016632
54.353	-0.00473	-0.36499	-0.004425	-0.016937	-0.003662	0.14969	0.082703	0.011902	0.027618	0.027618	-0.089722	0.097961	0.30762	0.01297	-0.12817	-0.010986	-0.071106	-0.057678	0.75867	-0.059662	0.043488	-0.018005	0.10742	-0.15701	-0.025482	-0.003357	0.19394	0	-0.20508	-0.062714	-0.001831	-0.014191
54.354	-0.007629	-0.32654	0.011597	-0.008545	-0.020599	0.30167	0.013733	0.003357	0.014038	0.056458	-0.14633	0.089264	0.20828	-0.09201	-0.064087	-0.017242	-0.062256	-0.047302	1.2508	-0.17761	0.013885	-0.00412	0.10849	-0.13107	-0.001221	-0.010986	0.11917	0.002441	-0.24735	-0.036621	-0.001526	-0.010376
54.355	-0.006409	-0.33402	0.002899	-0.018921	-0.006409	0.14801	-0.074005	-0.016479	-0.019684	0.083008	-0.16922	0.077667	0.010529	-0.14984	0.008392	-0.001221	-0.043945	-0.042114	1.2489	-0.24628	0.016479	0.004272	0.13336	-0.16251	-0.00946	-0.005646	0.24033	0.002594	-0.24231	-0.030365	-0.001526	-0.014496
